<?xml version="1.0" standalone="no"?>
<!DOCTYPE svg PUBLIC "-//W3C//DTD SVG 20010904//EN"
 "http://www.w3.org/TR/2001/REC-SVG-20010904/DTD/svg10.dtd">
<svg version="1.0" xmlns="http://www.w3.org/2000/svg"
 width="496.000000pt" height="94.000000pt" viewBox="0 0 496.000000 94.000000"
 preserveAspectRatio="xMidYMid meet">

<g transform="translate(0.000000,94.000000) scale(0.100000,-0.100000)"
fill="#000000" stroke="none">
<path d="M264 664 c3 -26 6 -134 6 -240 l0 -194 144 0 144 0 11 44 c14 57 14
66 -2 66 -6 0 -18 -14 -26 -30 -19 -44 -46 -57 -128 -63 l-73 -4 0 233 0 234
-41 0 -42 0 7 -46z"/>
<path d="M628 533 c4 -157 7 -182 25 -216 57 -103 251 -116 325 -22 35 44 42
92 40 259 l-3 156 -38 0 c-21 0 -37 -3 -35 -7 38 -74 41 -91 42 -220 1 -143
-4 -160 -68 -207 -37 -28 -111 -28 -148 -1 -57 42 -68 84 -68 268 l0 167 -38
0 -38 0 4 -177z"/>
<path d="M1227 695 c-59 -22 -95 -53 -127 -108 -68 -118 -22 -262 105 -330 54
-29 183 -31 235 -3 65 34 80 55 80 108 0 26 -3 48 -8 48 -4 0 -15 -22 -25 -50
-42 -119 -169 -144 -262 -52 -59 59 -79 106 -79 187 0 81 16 121 69 160 72 56
178 35 234 -46 14 -21 31 -38 36 -39 12 0 13 70 1 89 -29 45 -177 66 -259 36z"/>
<path d="M1570 470 l0 -240 35 0 c34 0 35 1 35 38 0 47 26 150 46 180 38 58
106 41 124 -31 28 -111 34 -127 54 -147 13 -11 38 -25 57 -30 65 -19 107 -7
57 15 -14 6 -41 44 -69 98 -58 112 -85 139 -145 147 l-47 5 52 65 c51 64 114
119 138 120 6 0 15 5 18 10 4 6 -19 10 -60 10 -53 0 -66 -3 -62 -14 7 -18 -13
-56 -62 -114 -22 -26 -54 -72 -70 -102 l-31 -55 0 143 0 142 -35 0 -35 0 0
-240z"/>
<path d="M2055 683 c10 -15 52 -80 92 -144 l73 -116 0 -97 0 -96 35 0 35 0 0
106 0 106 61 113 c33 63 72 123 87 134 l27 20 -53 1 c-48 0 -51 -2 -41 -18 9
-14 1 -36 -41 -115 -29 -54 -55 -95 -59 -92 -3 4 -36 55 -72 113 l-66 107 -48
3 -48 3 18 -28z"/>
<path d="M2730 470 l0 -242 118 4 c131 3 166 15 226 75 50 50 69 107 64 187
-5 80 -39 135 -112 181 -47 28 -56 30 -173 33 l-123 4 0 -242z m247 191 c80
-58 113 -173 78 -272 -34 -95 -85 -133 -192 -142 l-63 -5 0 224 0 224 68 0
c60 0 74 -4 109 -29z"/>
<path d="M3186 598 c1 -62 2 -170 3 -240 l1 -128 35 0 35 0 0 155 0 154 25
-24 c13 -14 33 -25 43 -25 36 0 79 -21 89 -44 6 -12 16 -48 23 -79 14 -69 48
-113 98 -127 47 -13 82 -13 82 0 0 6 -6 10 -13 10 -23 0 -54 41 -92 122 -20
43 -48 87 -63 99 -19 15 -23 23 -14 26 38 14 64 50 69 95 10 86 -50 118 -222
118 l-101 0 2 -112z m203 77 c59 -30 58 -134 -1 -163 -57 -27 -113 31 -125
129 l-6 49 52 0 c29 0 65 -7 80 -15z"/>
<path d="M3808 628 c-68 -123 -129 -273 -131 -322 -4 -95 72 -105 110 -15 19
44 72 97 109 109 20 7 37 10 38 8 2 -1 20 -42 41 -90 l37 -88 40 0 c34 0 39 3
33 18 -3 9 -50 117 -103 239 -67 153 -102 223 -113 223 -9 0 -34 -33 -61 -82z
m76 -105 c20 -45 36 -86 36 -91 0 -5 -17 -12 -39 -16 -45 -7 -95 -56 -125
-123 -19 -44 -42 -55 -53 -27 -3 9 2 43 11 77 20 76 117 280 127 270 4 -5 24
-45 43 -90z"/>
<path d="M4140 703 c0 -21 207 -473 216 -473 7 0 31 44 54 98 24 53 44 98 45
100 1 1 22 -42 46 -97 24 -56 49 -101 55 -101 17 0 174 360 174 398 0 48 -38
82 -90 82 -63 0 -94 -22 -128 -89 l-30 -60 -30 72 c-30 71 -30 72 -71 75 -23
2 -41 1 -41 -2 0 -2 23 -56 50 -119 28 -63 50 -119 50 -125 0 -5 -13 -36 -29
-69 -28 -56 -30 -57 -39 -33 -6 14 -42 97 -81 185 l-70 160 -40 3 c-23 2 -41
0 -41 -5z m538 -29 c15 -10 22 -25 22 -47 0 -36 -110 -292 -120 -280 -3 5 -23
47 -44 94 l-37 86 31 64 c45 94 93 121 148 83z"/>
</g>
</svg>
