<svg xmlns="http://www.w3.org/2000/svg" xmlns:xlink="http://www.w3.org/1999/xlink" width="1920" zoomAndPan="magnify" viewBox="0 0 1440 809.999993" height="1080" preserveAspectRatio="xMidYMid meet" version="1.0"><defs><g/></defs><g fill="#e6b86f" fill-opacity="1"><g transform="translate(3.060704, 446.495826)"><g><path d="M 25.820312 -116.476562 C 2.296875 -88.171875 2.296875 -47.050781 25.820312 -18.742188 C 68.28125 30.027344 140.191406 -7.078125 139.046875 -67.707031 C 140.191406 -128.335938 68.28125 -165.246094 25.820312 -116.476562 Z M 46.667969 -21.613281 C 24.480469 -58.90625 39.015625 -133.691406 73.632812 -133.691406 C 95.4375 -134.265625 111.695312 -100.410156 111.3125 -67.707031 C 112.269531 -13.195312 71.339844 23.140625 46.667969 -21.804688 Z M 46.667969 -21.613281 "/></g></g></g><g fill="#e6b86f" fill-opacity="1"><g transform="translate(150.712459, 446.495826)"><g><path d="M 87.023438 -55.65625 C 76.3125 -77.269531 44.371094 -79.945312 29.070312 -91.804688 C 11.859375 -105.957031 25.820312 -134.644531 49.726562 -129.863281 C 60.246094 -128.144531 69.234375 -121.066406 73.253906 -111.121094 L 87.023438 -128.335938 C 69.808594 -134.457031 49.726562 -140.191406 32.898438 -131.011719 C 16.640625 -120.875 3.058594 -100.792969 10.519531 -80.710938 C 16.257812 -66.75 29.644531 -59.863281 41.3125 -54.507812 C 48.007812 -51.066406 61.203125 -43.222656 62.160156 -42.460938 C 68.851562 -36.53125 71.148438 -27.160156 68.472656 -18.550781 C 61.585938 5.164062 26.96875 -1.148438 19.507812 -22.378906 L 7.460938 -7.078125 C 24.671875 -1.722656 43.605469 4.589844 61.011719 -3.25 C 79.5625 -12.050781 96.394531 -33.277344 87.023438 -55.65625 Z M 87.023438 -55.65625 "/></g></g></g><g fill="#e6b86f" fill-opacity="1"><g transform="translate(248.254399, 446.495826)"><g><path d="M 115.519531 -23.714844 C 104.046875 -15.492188 89.699219 -12.242188 75.929688 -15.109375 C 62.160156 -17.785156 50.109375 -26.203125 42.84375 -38.441406 C 36.53125 -49.535156 33.851562 -62.160156 35 -74.972656 C 35.574219 -91.996094 42.460938 -108.253906 54.507812 -120.492188 C 60.054688 -126.421875 67.707031 -130.054688 75.929688 -130.820312 C 83.007812 -130.628906 89.890625 -128.144531 95.628906 -124.128906 C 101.367188 -120.109375 106.53125 -115.328125 112.269531 -111.3125 C 112.269531 -118.773438 112.269531 -126.230469 112.269531 -133.882812 C 111.886719 -133.691406 111.695312 -133.691406 111.3125 -133.308594 C 110.929688 -132.925781 110.546875 -132.351562 110.355469 -131.777344 C 108.636719 -129.292969 105.765625 -128.144531 102.898438 -128.527344 C 100.027344 -128.910156 97.351562 -129.863281 94.863281 -131.011719 C 66.941406 -142.105469 35.191406 -131.96875 18.933594 -106.914062 C 13.003906 -97.542969 9.5625 -86.832031 8.414062 -75.929688 C 3.824219 -39.398438 29.261719 -6.121094 65.601562 -1.148438 C 85.300781 1.53125 105 -4.589844 119.726562 -17.785156 Z M 115.519531 -23.714844 "/></g></g></g><g fill="#e6b86f" fill-opacity="1"><g transform="translate(372.763848, 446.495826)"><g><path d="M 114.183594 -3.441406 L 72.105469 -132.542969 L 71.53125 -133.691406 L 40.546875 -133.691406 L 40.546875 -130.054688 L 50.492188 -130.054688 L 23.714844 -54.890625 C 20.273438 -58.144531 18.359375 -60.246094 18.359375 -60.246094 L 10.136719 -39.398438 C 12.242188 -37.871094 14.34375 -36.339844 16.640625 -34.808594 L 4.207031 0.191406 L 28.6875 0.191406 L 36.339844 -23.332031 C 60.054688 -11.859375 85.492188 -4.015625 111.503906 0 L 115.519531 0 Z M 41.503906 -39.207031 L 70.191406 -127.1875 L 109.019531 -6.3125 C 85.300781 -7.839844 59.480469 -24.671875 41.503906 -39.207031 Z M 41.503906 -39.207031 "/></g></g></g><g fill="#e6b86f" fill-opacity="1"><g transform="translate(491.53553, 446.495826)"><g><path d="M 113.992188 -17.597656 C 96.203125 -35.957031 83.960938 -46.476562 65.21875 -63.878906 C 67.898438 -63.878906 70.382812 -63.6875 73.0625 -63.6875 C 78.796875 -63.6875 84.726562 -64.453125 90.464844 -65.984375 C 96.203125 -67.515625 101.367188 -70.574219 105.574219 -74.78125 C 106.339844 -75.546875 107.105469 -76.503906 107.871094 -77.460938 C 112.460938 -84.535156 114.5625 -92.761719 113.800781 -100.984375 C 113.609375 -108.0625 111.695312 -114.945312 107.871094 -121.066406 C 104.234375 -126.996094 98.308594 -131.394531 91.421875 -133.308594 C 89.890625 -133.691406 88.171875 -133.691406 86.449219 -133.691406 L 86.449219 -133.882812 L 8.988281 -133.882812 L 8.988281 -129.863281 L 15.875 -129.863281 L 15.875 0 L 39.207031 0 L 39.207031 -129.863281 L 69.808594 -130.054688 C 75.929688 -130.4375 81.285156 -123.9375 83.960938 -118.773438 C 86.257812 -113.800781 87.40625 -108.445312 87.214844 -103.089844 C 87.214844 -98.691406 86.449219 -94.289062 85.109375 -90.273438 C 79.5625 -75.738281 61.777344 -72.105469 48.007812 -71.339844 C 46.859375 -71.339844 45.710938 -71.148438 45.710938 -71.339844 L 45.519531 -66.367188 C 45.519531 -65.984375 45.519531 -65.21875 45.519531 -65.027344 C 54.890625 -53.933594 65.027344 -42.652344 74.78125 -31.941406 C 84.726562 -21.039062 95.4375 -9.753906 105.574219 0.765625 L 108.828125 4.015625 L 113.992188 9.179688 Z M 113.992188 -17.597656 "/></g></g></g><g fill="#e6b86f" fill-opacity="1"><g transform="translate(615.088696, 446.495826)"><g/></g></g><g fill="#e6b86f" fill-opacity="1"><g transform="translate(676.674061, 446.495826)"><g><path d="M 114.183594 -3.441406 L 72.105469 -132.542969 L 71.53125 -133.691406 L 40.546875 -133.691406 L 40.546875 -130.054688 L 50.492188 -130.054688 L 23.714844 -54.890625 C 20.273438 -58.144531 18.359375 -60.246094 18.359375 -60.246094 L 10.136719 -39.398438 C 12.242188 -37.871094 14.34375 -36.339844 16.640625 -34.808594 L 4.207031 0.191406 L 28.6875 0.191406 L 36.339844 -23.332031 C 60.054688 -11.859375 85.492188 -4.015625 111.503906 0 L 115.519531 0 Z M 41.503906 -39.207031 L 70.191406 -127.1875 L 109.019531 -6.3125 C 85.300781 -7.839844 59.480469 -24.671875 41.503906 -39.207031 Z M 41.503906 -39.207031 "/></g></g></g><g fill="#e6b86f" fill-opacity="1"><g transform="translate(795.445707, 446.495826)"><g><path d="M 142.871094 -43.414062 L 171.941406 -133.691406 L 167.542969 -133.691406 L 133.882812 -28.304688 L 100.792969 -131.585938 L 101.367188 -133.691406 L 75.546875 -133.691406 L 75.738281 -133.308594 L 77.84375 -126.613281 L 86.449219 -100.21875 L 62.160156 -24.863281 L 27.351562 -133.691406 L 3.058594 -133.691406 L 45.902344 0.191406 L 70.382812 0.191406 C 66.558594 -11.859375 66.558594 -24.671875 70.382812 -36.722656 L 88.554688 -93.527344 L 118.582031 0.191406 L 142.871094 0.191406 C 138.28125 -13.960938 138.28125 -29.261719 142.871094 -43.414062 Z M 142.871094 -43.414062 "/></g></g></g><g fill="#e6b86f" fill-opacity="1"><g transform="translate(970.638763, 446.495826)"><g><path d="M 114.183594 -3.441406 L 72.105469 -132.542969 L 71.53125 -133.691406 L 40.546875 -133.691406 L 40.546875 -130.054688 L 50.492188 -130.054688 L 23.714844 -54.890625 C 20.273438 -58.144531 18.359375 -60.246094 18.359375 -60.246094 L 10.136719 -39.398438 C 12.242188 -37.871094 14.34375 -36.339844 16.640625 -34.808594 L 4.207031 0.191406 L 28.6875 0.191406 L 36.339844 -23.332031 C 60.054688 -11.859375 85.492188 -4.015625 111.503906 0 L 115.519531 0 Z M 41.503906 -39.207031 L 70.191406 -127.1875 L 109.019531 -6.3125 C 85.300781 -7.839844 59.480469 -24.671875 41.503906 -39.207031 Z M 41.503906 -39.207031 "/></g></g></g><g fill="#e6b86f" fill-opacity="1"><g transform="translate(1089.410409, 446.495826)"><g><path d="M 113.992188 -17.597656 C 96.203125 -35.957031 83.960938 -46.476562 65.21875 -63.878906 C 67.898438 -63.878906 70.382812 -63.6875 73.0625 -63.6875 C 78.796875 -63.6875 84.726562 -64.453125 90.464844 -65.984375 C 96.203125 -67.515625 101.367188 -70.574219 105.574219 -74.78125 C 106.339844 -75.546875 107.105469 -76.503906 107.871094 -77.460938 C 112.460938 -84.535156 114.5625 -92.761719 113.800781 -100.984375 C 113.609375 -108.0625 111.695312 -114.945312 107.871094 -121.066406 C 104.234375 -126.996094 98.308594 -131.394531 91.421875 -133.308594 C 89.890625 -133.691406 88.171875 -133.691406 86.449219 -133.691406 L 86.449219 -133.882812 L 8.988281 -133.882812 L 8.988281 -129.863281 L 15.875 -129.863281 L 15.875 0 L 39.207031 0 L 39.207031 -129.863281 L 69.808594 -130.054688 C 75.929688 -130.4375 81.285156 -123.9375 83.960938 -118.773438 C 86.257812 -113.800781 87.40625 -108.445312 87.214844 -103.089844 C 87.214844 -98.691406 86.449219 -94.289062 85.109375 -90.273438 C 79.5625 -75.738281 61.777344 -72.105469 48.007812 -71.339844 C 46.859375 -71.339844 45.710938 -71.148438 45.710938 -71.339844 L 45.519531 -66.367188 C 45.519531 -65.984375 45.519531 -65.21875 45.519531 -65.027344 C 54.890625 -53.933594 65.027344 -42.652344 74.78125 -31.941406 C 84.726562 -21.039062 95.4375 -9.753906 105.574219 0.765625 L 108.828125 4.015625 L 113.992188 9.179688 Z M 113.992188 -17.597656 "/></g></g></g><g fill="#e6b86f" fill-opacity="1"><g transform="translate(1212.963575, 446.495826)"><g><path d="M 114.183594 -86.449219 C 114.183594 -119.535156 99.261719 -130.246094 86.640625 -133.308594 C 85.683594 -133.5 84.726562 -133.691406 83.960938 -133.882812 L 8.222656 -133.882812 L 8.222656 -130.054688 L 16.640625 -130.054688 L 16.640625 -3.632812 L 8.222656 -3.632812 L 8.222656 0 L 69.042969 0 C 74.972656 0.191406 80.902344 -0.382812 86.640625 -1.339844 C 120.109375 -8.03125 114.183594 -36.914062 114.183594 -86.449219 Z M 89.507812 -30.601562 C 87.214844 -4.589844 62.925781 -3.632812 57.1875 -3.632812 L 39.972656 -3.632812 L 39.972656 -130.054688 L 64.453125 -130.054688 C 97.351562 -130.054688 91.230469 -49.535156 89.507812 -30.601562 Z M 89.507812 -30.601562 "/></g></g></g><g fill="#e6b86f" fill-opacity="1"><g transform="translate(1339.385626, 446.495826)"><g><path d="M 87.023438 -55.65625 C 76.3125 -77.269531 44.371094 -79.945312 29.070312 -91.804688 C 11.859375 -105.957031 25.820312 -134.644531 49.726562 -129.863281 C 60.246094 -128.144531 69.234375 -121.066406 73.253906 -111.121094 L 87.023438 -128.335938 C 69.808594 -134.457031 49.726562 -140.191406 32.898438 -131.011719 C 16.640625 -120.875 3.058594 -100.792969 10.519531 -80.710938 C 16.257812 -66.75 29.644531 -59.863281 41.3125 -54.507812 C 48.007812 -51.066406 61.203125 -43.222656 62.160156 -42.460938 C 68.851562 -36.53125 71.148438 -27.160156 68.472656 -18.550781 C 61.585938 5.164062 26.96875 -1.148438 19.507812 -22.378906 L 7.460938 -7.078125 C 24.671875 -1.722656 43.605469 4.589844 61.011719 -3.25 C 79.5625 -12.050781 96.394531 -33.277344 87.023438 -55.65625 Z M 87.023438 -55.65625 "/></g></g></g></svg>