<svg xmlns="http://www.w3.org/2000/svg" xmlns:xlink="http://www.w3.org/1999/xlink" width="1920" zoomAndPan="magnify" viewBox="0 0 1440 809.999993" height="1080" preserveAspectRatio="xMidYMid meet" version="1.0"><defs><g/></defs><g fill="#e6b86f" fill-opacity="1"><g transform="translate(207.666953, 443.239745)"><g><path d="M 73.980469 -16.304688 C 74.507812 -14.199219 74.683594 -11.921875 74.859375 -9.816406 C 75.035156 -7.539062 74.683594 -5.433594 73.980469 -3.332031 L 35.414062 -3.332031 L 35.414062 -122.542969 L 9.292969 -122.542969 L 9.292969 -119.210938 L 14.023438 -119.210938 L 14.023438 -3.332031 L 9.292969 -3.332031 L 9.292969 0 L 81.167969 0 L 81.167969 -16.304688 Z M 73.980469 -16.304688 "/></g></g></g><g fill="#e6b86f" fill-opacity="1"><g transform="translate(291.291045, 443.239745)"><g><path d="M 105.1875 -28.050781 L 105.1875 -122.542969 L 83.800781 -122.542969 L 83.800781 -29.277344 C 84.148438 -22.265625 81.519531 -15.253906 76.785156 -9.992188 C 72.054688 -4.910156 65.214844 -1.753906 58.203125 -1.578125 C 38.570312 0 18.582031 -8.238281 15.777344 -29.277344 C 15.425781 -31.207031 15.601562 -34.011719 15.425781 -36.289062 L 15.425781 -122.542969 L 12.097656 -122.542969 L 12.097656 -32.257812 C 11.921875 -31.207031 12.097656 -30.328125 12.273438 -29.277344 C 14.023438 -9.816406 29.101562 1.578125 49.789062 1.578125 C 61.886719 1.226562 77.3125 2.804688 88.53125 -3.332031 C 97.648438 -7.1875 103.960938 -15.601562 105.1875 -25.421875 C 105.1875 -26.648438 105.1875 -27 105.1875 -28.050781 Z M 105.1875 -28.050781 "/></g></g></g><g fill="#e6b86f" fill-opacity="1"><g transform="translate(408.925763, 443.239745)"><g><path d="M 105.890625 -21.738281 C 95.371094 -14.199219 82.222656 -11.21875 69.597656 -13.851562 C 56.976562 -16.304688 45.933594 -24.019531 39.269531 -35.238281 C 33.484375 -45.40625 31.03125 -56.976562 32.082031 -68.722656 C 32.609375 -84.324219 38.917969 -99.226562 49.964844 -110.445312 C 55.046875 -115.882812 62.0625 -119.210938 69.597656 -119.914062 C 76.085938 -119.738281 82.398438 -117.460938 87.65625 -113.777344 C 92.914062 -110.097656 97.648438 -105.714844 102.910156 -102.03125 C 102.910156 -108.867188 102.910156 -115.707031 102.910156 -122.71875 C 102.558594 -122.542969 102.382812 -122.542969 102.03125 -122.191406 C 101.679688 -121.84375 101.332031 -121.316406 101.15625 -120.789062 C 99.578125 -118.511719 96.949219 -117.460938 94.316406 -117.808594 C 91.6875 -118.160156 89.234375 -119.039062 86.953125 -120.089844 C 61.359375 -130.257812 32.257812 -120.964844 17.355469 -98 C 11.921875 -89.410156 8.765625 -79.59375 7.714844 -69.597656 C 3.507812 -36.113281 26.824219 -5.609375 60.132812 -1.050781 C 78.1875 1.402344 96.246094 -4.207031 109.746094 -16.304688 Z M 105.890625 -21.738281 "/></g></g></g><g fill="#e6b86f" fill-opacity="1"><g transform="translate(523.054252, 443.239745)"><g><path d="M 86.78125 -122.542969 L 34.1875 -66.617188 L 34.1875 -122.542969 L 12.972656 -122.542969 L 12.972656 0 L 34.1875 0 L 34.1875 -59.082031 L 95.894531 -122.542969 Z M 65.039062 -66.09375 L 41.023438 -66.09375 L 83.976562 0 L 113.425781 0 Z M 65.039062 -66.09375 "/></g></g></g><g fill="#e6b86f" fill-opacity="1"><g transform="translate(637.708665, 443.239745)"><g><path d="M 83.449219 -122.542969 L 56.625 -73.980469 L 29.628906 -122.542969 L 7.363281 -122.542969 L 1.929688 -122.191406 L 42.601562 -48.738281 L 18.757812 -5.785156 L 17.179688 -2.628906 L 17.003906 -2.628906 L 20.863281 -2.628906 L 22.617188 -5.785156 L 87.304688 -122.542969 Z M 83.449219 -122.542969 "/></g></g></g><g fill="#e6b86f" fill-opacity="1"><g transform="translate(726.59213, 443.239745)"><g/></g></g><g fill="#e6b86f" fill-opacity="1"><g transform="translate(783.042765, 443.239745)"><g><path d="M 104.660156 -79.242188 C 104.660156 -109.570312 90.988281 -119.386719 79.417969 -122.191406 C 78.539062 -122.367188 77.664062 -122.542969 76.960938 -122.71875 L 7.539062 -122.71875 L 7.539062 -119.210938 L 15.253906 -119.210938 L 15.253906 -3.332031 L 7.539062 -3.332031 L 7.539062 0 L 63.289062 0 C 68.722656 0.175781 74.15625 -0.351562 79.417969 -1.226562 C 110.097656 -7.363281 104.660156 -33.835938 104.660156 -79.242188 Z M 82.046875 -28.050781 C 79.941406 -4.207031 57.679688 -3.332031 52.417969 -3.332031 L 36.640625 -3.332031 L 36.640625 -119.210938 L 59.082031 -119.210938 C 89.234375 -119.210938 83.625 -45.40625 82.046875 -28.050781 Z M 82.046875 -28.050781 "/></g></g></g><g fill="#e6b86f" fill-opacity="1"><g transform="translate(898.924396, 443.239745)"><g><path d="M 104.484375 -16.128906 C 88.183594 -32.957031 76.960938 -42.601562 59.78125 -58.554688 C 62.234375 -58.554688 64.515625 -58.378906 66.96875 -58.378906 C 72.230469 -58.378906 77.664062 -59.082031 82.921875 -60.484375 C 88.183594 -61.886719 92.914062 -64.691406 96.773438 -68.546875 C 97.472656 -69.25 98.175781 -70.125 98.875 -71 C 103.082031 -77.488281 105.011719 -85.027344 104.3125 -92.566406 C 104.136719 -99.050781 102.382812 -105.363281 98.875 -110.972656 C 95.546875 -116.40625 90.109375 -120.441406 83.800781 -122.191406 C 82.398438 -122.542969 80.820312 -122.542969 79.242188 -122.542969 L 79.242188 -122.71875 L 8.238281 -122.71875 L 8.238281 -119.039062 L 14.550781 -119.039062 L 14.550781 0 L 35.9375 0 L 35.9375 -119.039062 L 63.988281 -119.210938 C 69.597656 -119.5625 74.507812 -113.601562 76.960938 -108.867188 C 79.066406 -104.3125 80.117188 -99.402344 79.941406 -94.492188 C 79.941406 -90.460938 79.242188 -86.429688 78.015625 -82.746094 C 72.929688 -69.421875 56.625 -66.09375 44.003906 -65.390625 C 42.953125 -65.390625 41.898438 -65.214844 41.898438 -65.390625 L 41.722656 -60.832031 C 41.722656 -60.484375 41.722656 -59.78125 41.722656 -59.605469 C 50.316406 -49.4375 59.605469 -39.09375 68.546875 -29.277344 C 77.664062 -19.285156 87.480469 -8.941406 96.773438 0.703125 L 99.753906 3.679688 L 104.484375 8.414062 Z M 104.484375 -16.128906 "/></g></g></g><g fill="#e6b86f" fill-opacity="1"><g transform="translate(1012.176313, 443.239745)"><g><path d="M 104.660156 -3.15625 L 66.09375 -121.492188 L 65.566406 -122.542969 L 37.167969 -122.542969 L 37.167969 -119.210938 L 46.28125 -119.210938 L 21.738281 -50.316406 C 18.582031 -53.296875 16.828125 -55.222656 16.828125 -55.222656 L 9.292969 -36.113281 C 11.21875 -34.710938 13.148438 -33.308594 15.253906 -31.90625 L 3.855469 0.175781 L 26.296875 0.175781 L 33.308594 -21.386719 C 55.046875 -10.871094 78.363281 -3.679688 102.207031 0 L 105.890625 0 Z M 38.042969 -35.9375 L 64.339844 -116.582031 L 99.929688 -5.785156 C 78.1875 -7.1875 54.523438 -22.617188 38.042969 -35.9375 Z M 38.042969 -35.9375 "/></g></g></g><g fill="#e6b86f" fill-opacity="1"><g transform="translate(1121.045417, 443.239745)"><g><path d="M 130.957031 -39.796875 L 157.605469 -122.542969 L 153.574219 -122.542969 L 122.71875 -25.945312 L 92.390625 -120.613281 L 92.914062 -122.542969 L 69.25 -122.542969 L 69.421875 -122.191406 L 71.351562 -116.058594 L 79.242188 -91.863281 L 56.976562 -22.789062 L 25.070312 -122.542969 L 2.804688 -122.542969 L 42.074219 0.175781 L 64.515625 0.175781 C 61.007812 -10.871094 61.007812 -22.617188 64.515625 -33.660156 L 81.167969 -85.726562 L 108.695312 0.175781 L 130.957031 0.175781 C 126.75 -12.796875 126.75 -26.824219 130.957031 -39.796875 Z M 130.957031 -39.796875 "/></g></g></g></svg>