<svg xmlns="http://www.w3.org/2000/svg" xmlns:xlink="http://www.w3.org/1999/xlink" width="1920" zoomAndPan="magnify" viewBox="0 0 1440 809.999993" height="1080" preserveAspectRatio="xMidYMid meet" version="1.0"><defs><g/></defs><g fill="#e6b86f" fill-opacity="1"><g transform="translate(0.00000622222, 466.144886)"><g><path d="M 99.195312 -21.859375 C 99.902344 -19.039062 100.136719 -15.984375 100.371094 -13.164062 C 100.605469 -10.109375 100.136719 -7.285156 99.195312 -4.464844 L 47.480469 -4.464844 L 47.480469 -164.308594 L 12.457031 -164.308594 L 12.457031 -159.839844 L 18.804688 -159.839844 L 18.804688 -4.464844 L 12.457031 -4.464844 L 12.457031 0 L 108.832031 0 L 108.832031 -21.859375 Z M 99.195312 -21.859375 "/></g></g></g><g fill="#e6b86f" fill-opacity="1"><g transform="translate(112.123649, 466.144886)"><g><path d="M 141.035156 -37.609375 L 141.035156 -164.308594 L 112.359375 -164.308594 L 112.359375 -39.253906 C 112.828125 -29.851562 109.304688 -20.449219 102.957031 -13.398438 C 96.609375 -6.582031 87.441406 -2.351562 78.039062 -2.117188 C 51.714844 0 24.917969 -11.046875 21.15625 -39.253906 C 20.683594 -41.839844 20.921875 -45.601562 20.683594 -48.65625 L 20.683594 -164.308594 L 16.21875 -164.308594 L 16.21875 -43.25 C 15.984375 -41.839844 16.21875 -40.664062 16.453125 -39.253906 C 18.804688 -13.164062 39.019531 2.117188 66.757812 2.117188 C 82.976562 1.644531 103.660156 3.761719 118.707031 -4.464844 C 130.929688 -9.636719 139.390625 -20.921875 141.035156 -34.082031 C 141.035156 -35.730469 141.035156 -36.199219 141.035156 -37.609375 Z M 141.035156 -37.609375 "/></g></g></g><g fill="#e6b86f" fill-opacity="1"><g transform="translate(269.848926, 466.144886)"><g><path d="M 141.976562 -29.148438 C 127.871094 -19.039062 110.242188 -15.042969 93.320312 -18.570312 C 76.394531 -21.859375 61.585938 -32.203125 52.652344 -47.246094 C 44.894531 -60.878906 41.605469 -76.394531 43.015625 -92.144531 C 43.722656 -113.0625 52.183594 -133.042969 66.992188 -148.085938 C 73.808594 -155.375 83.210938 -159.839844 93.320312 -160.78125 C 102.015625 -160.546875 110.476562 -157.488281 117.53125 -152.554688 C 124.582031 -147.617188 130.929688 -141.742188 137.980469 -136.804688 C 137.980469 -145.972656 137.980469 -155.140625 137.980469 -164.542969 C 137.511719 -164.308594 137.273438 -164.308594 136.804688 -163.835938 C 136.335938 -163.367188 135.863281 -162.660156 135.628906 -161.957031 C 133.515625 -158.902344 129.988281 -157.488281 126.460938 -157.960938 C 122.9375 -158.429688 119.644531 -159.605469 116.589844 -161.015625 C 82.269531 -174.648438 43.25 -162.191406 23.269531 -131.398438 C 15.984375 -119.878906 11.753906 -106.71875 10.34375 -93.320312 C 4.703125 -48.421875 35.964844 -7.523438 80.625 -1.410156 C 104.835938 1.878906 129.046875 -5.640625 147.148438 -21.859375 Z M 141.976562 -29.148438 "/></g></g></g><g fill="#e6b86f" fill-opacity="1"><g transform="translate(422.873032, 466.144886)"><g><path d="M 116.355469 -164.308594 L 45.835938 -89.324219 L 45.835938 -164.308594 L 17.394531 -164.308594 L 17.394531 0 L 45.835938 0 L 45.835938 -79.214844 L 128.578125 -164.308594 Z M 87.207031 -88.617188 L 55.003906 -88.617188 L 112.59375 0 L 152.082031 0 Z M 87.207031 -88.617188 "/></g></g></g><g fill="#e6b86f" fill-opacity="1"><g transform="translate(576.6023, 466.144886)"><g><path d="M 111.886719 -164.308594 L 75.925781 -99.195312 L 39.726562 -164.308594 L 9.871094 -164.308594 L 2.585938 -163.835938 L 57.121094 -65.347656 L 25.152344 -7.757812 L 23.035156 -3.527344 L 22.800781 -3.527344 L 27.972656 -3.527344 L 30.324219 -7.757812 L 117.058594 -164.308594 Z M 111.886719 -164.308594 "/></g></g></g><g fill="#e6b86f" fill-opacity="1"><g transform="translate(695.777739, 466.144886)"><g/></g></g><g fill="#e6b86f" fill-opacity="1"><g transform="translate(771.467061, 466.144886)"><g><path d="M 140.332031 -106.246094 C 140.332031 -146.914062 121.996094 -160.074219 106.480469 -163.835938 C 105.308594 -164.070312 104.132812 -164.308594 103.191406 -164.542969 L 10.109375 -164.542969 L 10.109375 -159.839844 L 20.449219 -159.839844 L 20.449219 -4.464844 L 10.109375 -4.464844 L 10.109375 0 L 84.855469 0 C 92.144531 0.234375 99.429688 -0.46875 106.480469 -1.644531 C 147.617188 -9.871094 140.332031 -45.367188 140.332031 -106.246094 Z M 110.007812 -37.609375 C 107.1875 -5.640625 77.335938 -4.464844 70.28125 -4.464844 L 49.128906 -4.464844 L 49.128906 -159.839844 L 79.214844 -159.839844 C 119.644531 -159.839844 112.125 -60.878906 110.007812 -37.609375 Z M 110.007812 -37.609375 "/></g></g></g><g fill="#e6b86f" fill-opacity="1"><g transform="translate(926.84179, 466.144886)"><g><path d="M 140.097656 -21.625 C 118.234375 -44.191406 103.191406 -57.121094 80.15625 -78.511719 C 83.445312 -78.511719 86.503906 -78.273438 89.792969 -78.273438 C 96.84375 -78.273438 104.132812 -79.214844 111.183594 -81.09375 C 118.234375 -82.976562 124.582031 -86.738281 129.753906 -91.910156 C 130.691406 -92.847656 131.632812 -94.023438 132.574219 -95.199219 C 138.214844 -103.898438 140.800781 -114.003906 139.859375 -124.113281 C 139.625 -132.808594 137.273438 -141.269531 132.574219 -148.792969 C 128.109375 -156.078125 120.820312 -161.484375 112.359375 -163.835938 C 110.476562 -164.308594 108.363281 -164.308594 106.246094 -164.308594 L 106.246094 -164.542969 L 11.046875 -164.542969 L 11.046875 -159.605469 L 19.511719 -159.605469 L 19.511719 0 L 48.1875 0 L 48.1875 -159.605469 L 85.796875 -159.839844 C 93.320312 -160.3125 99.902344 -152.320312 103.191406 -145.972656 C 106.011719 -139.859375 107.421875 -133.277344 107.1875 -126.699219 C 107.1875 -121.289062 106.246094 -115.882812 104.601562 -110.949219 C 97.785156 -93.082031 75.925781 -88.617188 59 -87.675781 C 57.589844 -87.675781 56.179688 -87.441406 56.179688 -87.675781 L 55.945312 -81.566406 C 55.945312 -81.09375 55.945312 -80.15625 55.945312 -79.921875 C 67.460938 -66.285156 79.921875 -52.417969 91.910156 -39.253906 C 104.132812 -25.855469 117.296875 -11.988281 129.753906 0.941406 L 133.75 4.9375 L 140.097656 11.28125 Z M 140.097656 -21.625 "/></g></g></g><g fill="#e6b86f" fill-opacity="1"><g transform="translate(1078.690583, 466.144886)"><g><path d="M 140.332031 -4.230469 L 88.617188 -162.898438 L 87.914062 -164.308594 L 49.832031 -164.308594 L 49.832031 -159.839844 L 62.054688 -159.839844 L 29.148438 -67.460938 C 24.917969 -71.457031 22.566406 -74.042969 22.566406 -74.042969 L 12.457031 -48.421875 C 15.042969 -46.542969 17.628906 -44.660156 20.449219 -42.78125 L 5.171875 0.234375 L 35.257812 0.234375 L 44.660156 -28.675781 C 73.808594 -14.574219 105.070312 -4.9375 137.039062 0 L 141.976562 0 Z M 51.007812 -48.1875 L 86.265625 -156.316406 L 133.984375 -7.757812 C 104.835938 -9.636719 73.105469 -30.324219 51.007812 -48.1875 Z M 51.007812 -48.1875 "/></g></g></g><g fill="#e6b86f" fill-opacity="1"><g transform="translate(1224.662878, 466.144886)"><g><path d="M 175.589844 -53.359375 L 211.320312 -164.308594 L 205.914062 -164.308594 L 164.542969 -34.789062 L 123.875 -161.722656 L 124.582031 -164.308594 L 92.847656 -164.308594 L 93.082031 -163.835938 L 95.667969 -155.609375 L 106.246094 -123.171875 L 76.394531 -30.558594 L 33.613281 -164.308594 L 3.761719 -164.308594 L 56.414062 0.234375 L 86.503906 0.234375 C 81.800781 -14.574219 81.800781 -30.324219 86.503906 -45.132812 L 108.832031 -114.945312 L 145.738281 0.234375 L 175.589844 0.234375 C 169.949219 -17.160156 169.949219 -35.964844 175.589844 -53.359375 Z M 175.589844 -53.359375 "/></g></g></g></svg>